<mxfile host="Electron" modified="2024-01-23T02:19:05.242Z" agent="Mozilla/5.0 (Windows NT 10.0; Win64; x64) AppleWebKit/537.36 (KHTML, like Gecko) draw.io/22.1.21 Chrome/120.0.6099.109 Electron/28.1.0 Safari/537.36" etag="1_7Oq5lY9qhMJzHztv_-" version="22.1.21" type="device">
  <diagram name="Page-1" id="1fU87tmROTjDad3C8r2x">
    <mxGraphModel dx="1518" dy="731" grid="1" gridSize="10" guides="1" tooltips="1" connect="1" arrows="1" fold="1" page="1" pageScale="1" pageWidth="1700" pageHeight="1100" math="0" shadow="0">
      <root>
        <mxCell id="0" />
        <mxCell id="1" parent="0" />
        <mxCell id="xnmlioU--l8Yxx-gehtj-63" value="" style="rounded=1;whiteSpace=wrap;html=1;fillColor=none;" vertex="1" parent="1">
          <mxGeometry x="1030" y="450" width="500" height="240" as="geometry" />
        </mxCell>
        <mxCell id="xnmlioU--l8Yxx-gehtj-42" value="" style="rounded=1;whiteSpace=wrap;html=1;fillColor=none;" vertex="1" parent="1">
          <mxGeometry x="930" y="114" width="720" height="240" as="geometry" />
        </mxCell>
        <mxCell id="xnmlioU--l8Yxx-gehtj-40" value="" style="ellipse;whiteSpace=wrap;html=1;aspect=fixed;fillColor=none;" vertex="1" parent="1">
          <mxGeometry x="970" y="274" width="40" height="40" as="geometry" />
        </mxCell>
        <mxCell id="xnmlioU--l8Yxx-gehtj-20" value="" style="rounded=1;whiteSpace=wrap;html=1;fillColor=none;" vertex="1" parent="1">
          <mxGeometry x="40" y="110" width="800" height="480" as="geometry" />
        </mxCell>
        <mxCell id="xnmlioU--l8Yxx-gehtj-3" value="Power ON" style="edgeStyle=orthogonalEdgeStyle;rounded=0;orthogonalLoop=1;jettySize=auto;html=1;" edge="1" parent="1" source="xnmlioU--l8Yxx-gehtj-1" target="xnmlioU--l8Yxx-gehtj-2">
          <mxGeometry y="10" relative="1" as="geometry">
            <mxPoint as="offset" />
          </mxGeometry>
        </mxCell>
        <mxCell id="xnmlioU--l8Yxx-gehtj-1" value="Initial State" style="ellipse;whiteSpace=wrap;html=1;" vertex="1" parent="1">
          <mxGeometry x="80" y="390" width="120" height="120" as="geometry" />
        </mxCell>
        <mxCell id="xnmlioU--l8Yxx-gehtj-7" value="Power OFF" style="edgeStyle=orthogonalEdgeStyle;rounded=0;orthogonalLoop=1;jettySize=auto;html=1;" edge="1" parent="1" source="xnmlioU--l8Yxx-gehtj-2" target="xnmlioU--l8Yxx-gehtj-6">
          <mxGeometry y="40" relative="1" as="geometry">
            <mxPoint as="offset" />
          </mxGeometry>
        </mxCell>
        <mxCell id="xnmlioU--l8Yxx-gehtj-11" value="Setup Done" style="edgeStyle=orthogonalEdgeStyle;rounded=0;orthogonalLoop=1;jettySize=auto;html=1;" edge="1" parent="1" source="xnmlioU--l8Yxx-gehtj-2" target="xnmlioU--l8Yxx-gehtj-10">
          <mxGeometry y="10" relative="1" as="geometry">
            <mxPoint as="offset" />
          </mxGeometry>
        </mxCell>
        <mxCell id="xnmlioU--l8Yxx-gehtj-2" value="Power ON&lt;br&gt;Setup State" style="ellipse;whiteSpace=wrap;html=1;" vertex="1" parent="1">
          <mxGeometry x="280" y="390" width="120" height="120" as="geometry" />
        </mxCell>
        <mxCell id="xnmlioU--l8Yxx-gehtj-8" value="Setup Done" style="edgeStyle=orthogonalEdgeStyle;rounded=0;orthogonalLoop=1;jettySize=auto;html=1;exitX=0;exitY=0.5;exitDx=0;exitDy=0;entryX=0.5;entryY=0;entryDx=0;entryDy=0;" edge="1" parent="1" source="xnmlioU--l8Yxx-gehtj-6" target="xnmlioU--l8Yxx-gehtj-1">
          <mxGeometry x="-0.25" y="-10" relative="1" as="geometry">
            <mxPoint as="offset" />
          </mxGeometry>
        </mxCell>
        <mxCell id="xnmlioU--l8Yxx-gehtj-6" value="Power OFF&lt;br&gt;Setup State" style="ellipse;whiteSpace=wrap;html=1;" vertex="1" parent="1">
          <mxGeometry x="280" y="190" width="120" height="120" as="geometry" />
        </mxCell>
        <mxCell id="xnmlioU--l8Yxx-gehtj-12" value="Power OFF" style="edgeStyle=orthogonalEdgeStyle;rounded=0;orthogonalLoop=1;jettySize=auto;html=1;exitX=0.5;exitY=0;exitDx=0;exitDy=0;entryX=1;entryY=0.5;entryDx=0;entryDy=0;" edge="1" parent="1" source="xnmlioU--l8Yxx-gehtj-10" target="xnmlioU--l8Yxx-gehtj-6">
          <mxGeometry x="0.375" y="-10" relative="1" as="geometry">
            <mxPoint as="offset" />
          </mxGeometry>
        </mxCell>
        <mxCell id="xnmlioU--l8Yxx-gehtj-14" value="Change Mode" style="edgeStyle=orthogonalEdgeStyle;rounded=0;orthogonalLoop=1;jettySize=auto;html=1;" edge="1" parent="1" source="xnmlioU--l8Yxx-gehtj-10" target="xnmlioU--l8Yxx-gehtj-13">
          <mxGeometry y="10" relative="1" as="geometry">
            <mxPoint as="offset" />
          </mxGeometry>
        </mxCell>
        <mxCell id="xnmlioU--l8Yxx-gehtj-10" value="Linear Movement&lt;br&gt;State" style="ellipse;whiteSpace=wrap;html=1;" vertex="1" parent="1">
          <mxGeometry x="480" y="390" width="120" height="120" as="geometry" />
        </mxCell>
        <mxCell id="xnmlioU--l8Yxx-gehtj-18" value="Power OFF" style="edgeStyle=orthogonalEdgeStyle;rounded=0;orthogonalLoop=1;jettySize=auto;html=1;exitX=0.5;exitY=0;exitDx=0;exitDy=0;entryX=0.5;entryY=0;entryDx=0;entryDy=0;" edge="1" parent="1" source="xnmlioU--l8Yxx-gehtj-13" target="xnmlioU--l8Yxx-gehtj-6">
          <mxGeometry x="0.4412" y="-10" relative="1" as="geometry">
            <Array as="points">
              <mxPoint x="740" y="150" />
              <mxPoint x="340" y="150" />
            </Array>
            <mxPoint as="offset" />
          </mxGeometry>
        </mxCell>
        <mxCell id="xnmlioU--l8Yxx-gehtj-19" value="Change Mode" style="edgeStyle=orthogonalEdgeStyle;rounded=0;orthogonalLoop=1;jettySize=auto;html=1;exitX=0.5;exitY=1;exitDx=0;exitDy=0;entryX=0.5;entryY=1;entryDx=0;entryDy=0;" edge="1" parent="1" source="xnmlioU--l8Yxx-gehtj-13" target="xnmlioU--l8Yxx-gehtj-10">
          <mxGeometry relative="1" as="geometry">
            <Array as="points">
              <mxPoint x="740" y="550" />
              <mxPoint x="540" y="550" />
            </Array>
          </mxGeometry>
        </mxCell>
        <mxCell id="xnmlioU--l8Yxx-gehtj-13" value="Joint Movement&lt;br&gt;State" style="ellipse;whiteSpace=wrap;html=1;" vertex="1" parent="1">
          <mxGeometry x="680" y="390" width="120" height="120" as="geometry" />
        </mxCell>
        <mxCell id="xnmlioU--l8Yxx-gehtj-21" value="&lt;font style=&quot;font-size: 36px;&quot;&gt;State Diagram&lt;/font&gt;" style="text;html=1;strokeColor=none;fillColor=none;align=center;verticalAlign=middle;whiteSpace=wrap;rounded=0;" vertex="1" parent="1">
          <mxGeometry x="320" y="40" width="240" height="80" as="geometry" />
        </mxCell>
        <mxCell id="xnmlioU--l8Yxx-gehtj-31" value="" style="edgeStyle=orthogonalEdgeStyle;rounded=0;orthogonalLoop=1;jettySize=auto;html=1;" edge="1" parent="1" source="xnmlioU--l8Yxx-gehtj-22" target="xnmlioU--l8Yxx-gehtj-30">
          <mxGeometry relative="1" as="geometry" />
        </mxCell>
        <mxCell id="xnmlioU--l8Yxx-gehtj-22" value="" style="ellipse;whiteSpace=wrap;html=1;aspect=fixed;fillColor=#000000;" vertex="1" parent="1">
          <mxGeometry x="970" y="154" width="40" height="40" as="geometry" />
        </mxCell>
        <mxCell id="xnmlioU--l8Yxx-gehtj-27" value="" style="edgeStyle=orthogonalEdgeStyle;rounded=0;orthogonalLoop=1;jettySize=auto;html=1;" edge="1" parent="1" source="xnmlioU--l8Yxx-gehtj-23" target="xnmlioU--l8Yxx-gehtj-26">
          <mxGeometry relative="1" as="geometry" />
        </mxCell>
        <mxCell id="xnmlioU--l8Yxx-gehtj-23" value="Create Robot &lt;br&gt;Object" style="rounded=1;whiteSpace=wrap;html=1;" vertex="1" parent="1">
          <mxGeometry x="1290" y="144" width="120" height="60" as="geometry" />
        </mxCell>
        <mxCell id="xnmlioU--l8Yxx-gehtj-34" value="" style="edgeStyle=orthogonalEdgeStyle;rounded=0;orthogonalLoop=1;jettySize=auto;html=1;" edge="1" parent="1" source="xnmlioU--l8Yxx-gehtj-26" target="xnmlioU--l8Yxx-gehtj-33">
          <mxGeometry relative="1" as="geometry" />
        </mxCell>
        <mxCell id="xnmlioU--l8Yxx-gehtj-26" value="Set Joints&lt;br&gt;Initial Values" style="rounded=1;whiteSpace=wrap;html=1;" vertex="1" parent="1">
          <mxGeometry x="1490" y="144" width="120" height="60" as="geometry" />
        </mxCell>
        <mxCell id="xnmlioU--l8Yxx-gehtj-37" value="" style="edgeStyle=orthogonalEdgeStyle;rounded=0;orthogonalLoop=1;jettySize=auto;html=1;" edge="1" parent="1" source="xnmlioU--l8Yxx-gehtj-28" target="xnmlioU--l8Yxx-gehtj-36">
          <mxGeometry relative="1" as="geometry" />
        </mxCell>
        <mxCell id="xnmlioU--l8Yxx-gehtj-28" value="Move to Homing&lt;br&gt;Position" style="rounded=1;whiteSpace=wrap;html=1;" vertex="1" parent="1">
          <mxGeometry x="1290" y="264" width="120" height="60" as="geometry" />
        </mxCell>
        <mxCell id="xnmlioU--l8Yxx-gehtj-32" value="" style="edgeStyle=orthogonalEdgeStyle;rounded=0;orthogonalLoop=1;jettySize=auto;html=1;" edge="1" parent="1" source="xnmlioU--l8Yxx-gehtj-30" target="xnmlioU--l8Yxx-gehtj-23">
          <mxGeometry relative="1" as="geometry" />
        </mxCell>
        <mxCell id="xnmlioU--l8Yxx-gehtj-30" value="Display Start &lt;br&gt;Setup State" style="rounded=1;whiteSpace=wrap;html=1;" vertex="1" parent="1">
          <mxGeometry x="1090" y="144" width="120" height="60" as="geometry" />
        </mxCell>
        <mxCell id="xnmlioU--l8Yxx-gehtj-35" value="" style="edgeStyle=orthogonalEdgeStyle;rounded=0;orthogonalLoop=1;jettySize=auto;html=1;" edge="1" parent="1" source="xnmlioU--l8Yxx-gehtj-33" target="xnmlioU--l8Yxx-gehtj-28">
          <mxGeometry relative="1" as="geometry" />
        </mxCell>
        <mxCell id="xnmlioU--l8Yxx-gehtj-33" value="Display Homing" style="rounded=1;whiteSpace=wrap;html=1;" vertex="1" parent="1">
          <mxGeometry x="1490" y="264" width="120" height="60" as="geometry" />
        </mxCell>
        <mxCell id="xnmlioU--l8Yxx-gehtj-41" value="" style="edgeStyle=orthogonalEdgeStyle;rounded=0;orthogonalLoop=1;jettySize=auto;html=1;entryX=1;entryY=0.5;entryDx=0;entryDy=0;" edge="1" parent="1" source="xnmlioU--l8Yxx-gehtj-36" target="xnmlioU--l8Yxx-gehtj-40">
          <mxGeometry relative="1" as="geometry">
            <mxPoint x="1040" y="284" as="targetPoint" />
          </mxGeometry>
        </mxCell>
        <mxCell id="xnmlioU--l8Yxx-gehtj-36" value="Display&lt;br&gt;Steup Complete" style="rounded=1;whiteSpace=wrap;html=1;" vertex="1" parent="1">
          <mxGeometry x="1090" y="264" width="120" height="60" as="geometry" />
        </mxCell>
        <mxCell id="xnmlioU--l8Yxx-gehtj-38" value="" style="ellipse;whiteSpace=wrap;html=1;aspect=fixed;fillColor=#000000;" vertex="1" parent="1">
          <mxGeometry x="975" y="279" width="30" height="30" as="geometry" />
        </mxCell>
        <mxCell id="xnmlioU--l8Yxx-gehtj-43" value="&lt;span style=&quot;font-size: 24px;&quot;&gt;Power ON Setup&lt;/span&gt;" style="text;html=1;strokeColor=none;fillColor=none;align=center;verticalAlign=middle;whiteSpace=wrap;rounded=0;" vertex="1" parent="1">
          <mxGeometry x="1170" y="54" width="240" height="80" as="geometry" />
        </mxCell>
        <mxCell id="xnmlioU--l8Yxx-gehtj-45" value="" style="ellipse;whiteSpace=wrap;html=1;aspect=fixed;fillColor=none;" vertex="1" parent="1">
          <mxGeometry x="1060" y="600" width="40" height="40" as="geometry" />
        </mxCell>
        <mxCell id="xnmlioU--l8Yxx-gehtj-46" value="" style="edgeStyle=orthogonalEdgeStyle;rounded=0;orthogonalLoop=1;jettySize=auto;html=1;" edge="1" parent="1" source="xnmlioU--l8Yxx-gehtj-47" target="xnmlioU--l8Yxx-gehtj-55">
          <mxGeometry relative="1" as="geometry" />
        </mxCell>
        <mxCell id="xnmlioU--l8Yxx-gehtj-47" value="" style="ellipse;whiteSpace=wrap;html=1;aspect=fixed;fillColor=#000000;" vertex="1" parent="1">
          <mxGeometry x="1060" y="480" width="40" height="40" as="geometry" />
        </mxCell>
        <mxCell id="xnmlioU--l8Yxx-gehtj-48" value="" style="edgeStyle=orthogonalEdgeStyle;rounded=0;orthogonalLoop=1;jettySize=auto;html=1;" edge="1" parent="1" source="xnmlioU--l8Yxx-gehtj-49" target="xnmlioU--l8Yxx-gehtj-51">
          <mxGeometry relative="1" as="geometry" />
        </mxCell>
        <mxCell id="xnmlioU--l8Yxx-gehtj-49" value="Finish Moving&lt;br&gt;Sequence" style="rounded=1;whiteSpace=wrap;html=1;" vertex="1" parent="1">
          <mxGeometry x="1380" y="470" width="120" height="60" as="geometry" />
        </mxCell>
        <mxCell id="xnmlioU--l8Yxx-gehtj-50" value="" style="edgeStyle=orthogonalEdgeStyle;rounded=0;orthogonalLoop=1;jettySize=auto;html=1;entryX=1;entryY=0.5;entryDx=0;entryDy=0;" edge="1" parent="1" source="xnmlioU--l8Yxx-gehtj-51" target="xnmlioU--l8Yxx-gehtj-57">
          <mxGeometry relative="1" as="geometry" />
        </mxCell>
        <mxCell id="xnmlioU--l8Yxx-gehtj-51" value="Homing" style="rounded=1;whiteSpace=wrap;html=1;" vertex="1" parent="1">
          <mxGeometry x="1380" y="590" width="120" height="60" as="geometry" />
        </mxCell>
        <mxCell id="xnmlioU--l8Yxx-gehtj-54" value="" style="edgeStyle=orthogonalEdgeStyle;rounded=0;orthogonalLoop=1;jettySize=auto;html=1;" edge="1" parent="1" source="xnmlioU--l8Yxx-gehtj-55" target="xnmlioU--l8Yxx-gehtj-49">
          <mxGeometry relative="1" as="geometry" />
        </mxCell>
        <mxCell id="xnmlioU--l8Yxx-gehtj-55" value="Display Start&amp;nbsp;&lt;br&gt;Power OFF Setup" style="rounded=1;whiteSpace=wrap;html=1;" vertex="1" parent="1">
          <mxGeometry x="1180" y="470" width="120" height="60" as="geometry" />
        </mxCell>
        <mxCell id="xnmlioU--l8Yxx-gehtj-57" value="Display &lt;br&gt;Setup Done" style="rounded=1;whiteSpace=wrap;html=1;" vertex="1" parent="1">
          <mxGeometry x="1180" y="590" width="120" height="60" as="geometry" />
        </mxCell>
        <mxCell id="xnmlioU--l8Yxx-gehtj-60" value="" style="ellipse;whiteSpace=wrap;html=1;aspect=fixed;fillColor=#000000;" vertex="1" parent="1">
          <mxGeometry x="1065" y="605" width="30" height="30" as="geometry" />
        </mxCell>
        <mxCell id="xnmlioU--l8Yxx-gehtj-61" value="&lt;span style=&quot;font-size: 24px;&quot;&gt;Power OFF Setup&lt;/span&gt;" style="text;html=1;strokeColor=none;fillColor=none;align=center;verticalAlign=middle;whiteSpace=wrap;rounded=0;" vertex="1" parent="1">
          <mxGeometry x="1170" y="380" width="240" height="80" as="geometry" />
        </mxCell>
        <mxCell id="xnmlioU--l8Yxx-gehtj-62" style="edgeStyle=orthogonalEdgeStyle;rounded=0;orthogonalLoop=1;jettySize=auto;html=1;exitX=0;exitY=0.5;exitDx=0;exitDy=0;entryX=1.244;entryY=0.49;entryDx=0;entryDy=0;entryPerimeter=0;" edge="1" parent="1" source="xnmlioU--l8Yxx-gehtj-57" target="xnmlioU--l8Yxx-gehtj-60">
          <mxGeometry relative="1" as="geometry" />
        </mxCell>
        <mxCell id="xnmlioU--l8Yxx-gehtj-64" value="" style="ellipse;whiteSpace=wrap;html=1;aspect=fixed;fillColor=none;" vertex="1" parent="1">
          <mxGeometry x="545" y="2130" width="40" height="40" as="geometry" />
        </mxCell>
        <mxCell id="xnmlioU--l8Yxx-gehtj-116" value="" style="edgeStyle=orthogonalEdgeStyle;rounded=0;orthogonalLoop=1;jettySize=auto;html=1;" edge="1" parent="1" source="xnmlioU--l8Yxx-gehtj-66" target="xnmlioU--l8Yxx-gehtj-115">
          <mxGeometry relative="1" as="geometry" />
        </mxCell>
        <mxCell id="xnmlioU--l8Yxx-gehtj-66" value="" style="ellipse;whiteSpace=wrap;html=1;aspect=fixed;fillColor=#000000;" vertex="1" parent="1">
          <mxGeometry x="545" y="1160" width="40" height="40" as="geometry" />
        </mxCell>
        <mxCell id="xnmlioU--l8Yxx-gehtj-74" value="" style="ellipse;whiteSpace=wrap;html=1;aspect=fixed;fillColor=#000000;" vertex="1" parent="1">
          <mxGeometry x="550" y="2135" width="30" height="30" as="geometry" />
        </mxCell>
        <mxCell id="xnmlioU--l8Yxx-gehtj-119" value="" style="edgeStyle=orthogonalEdgeStyle;rounded=0;orthogonalLoop=1;jettySize=auto;html=1;" edge="1" parent="1" source="xnmlioU--l8Yxx-gehtj-77" target="xnmlioU--l8Yxx-gehtj-82">
          <mxGeometry relative="1" as="geometry" />
        </mxCell>
        <mxCell id="xnmlioU--l8Yxx-gehtj-77" value="Display&amp;nbsp;Joint&lt;br&gt;Mouvement Mode" style="rounded=1;whiteSpace=wrap;html=1;" vertex="1" parent="1">
          <mxGeometry x="280" y="1270" width="120" height="60" as="geometry" />
        </mxCell>
        <mxCell id="xnmlioU--l8Yxx-gehtj-85" value="1" style="edgeStyle=orthogonalEdgeStyle;rounded=0;orthogonalLoop=1;jettySize=auto;html=1;exitX=0;exitY=0;exitDx=0;exitDy=0;entryX=0.5;entryY=0;entryDx=0;entryDy=0;" edge="1" parent="1" source="xnmlioU--l8Yxx-gehtj-78" target="xnmlioU--l8Yxx-gehtj-80">
          <mxGeometry x="0.0625" y="-10" relative="1" as="geometry">
            <Array as="points">
              <mxPoint x="535" y="1530" />
              <mxPoint x="245" y="1530" />
            </Array>
            <mxPoint as="offset" />
          </mxGeometry>
        </mxCell>
        <mxCell id="xnmlioU--l8Yxx-gehtj-88" value="2" style="edgeStyle=orthogonalEdgeStyle;rounded=0;orthogonalLoop=1;jettySize=auto;html=1;exitX=0;exitY=0.5;exitDx=0;exitDy=0;entryX=0.5;entryY=0;entryDx=0;entryDy=0;" edge="1" parent="1" source="xnmlioU--l8Yxx-gehtj-78" target="xnmlioU--l8Yxx-gehtj-86">
          <mxGeometry x="-0.2499" y="-10" relative="1" as="geometry">
            <mxPoint as="offset" />
          </mxGeometry>
        </mxCell>
        <mxCell id="xnmlioU--l8Yxx-gehtj-90" value="3" style="edgeStyle=orthogonalEdgeStyle;rounded=0;orthogonalLoop=1;jettySize=auto;html=1;exitX=0;exitY=1;exitDx=0;exitDy=0;entryX=0.5;entryY=0;entryDx=0;entryDy=0;" edge="1" parent="1" source="xnmlioU--l8Yxx-gehtj-78" target="xnmlioU--l8Yxx-gehtj-89">
          <mxGeometry x="0.0909" y="-10" relative="1" as="geometry">
            <Array as="points">
              <mxPoint x="485" y="1620" />
            </Array>
            <mxPoint as="offset" />
          </mxGeometry>
        </mxCell>
        <mxCell id="xnmlioU--l8Yxx-gehtj-92" value="4" style="edgeStyle=orthogonalEdgeStyle;rounded=0;orthogonalLoop=1;jettySize=auto;html=1;exitX=1;exitY=1;exitDx=0;exitDy=0;entryX=0.5;entryY=0;entryDx=0;entryDy=0;" edge="1" parent="1" source="xnmlioU--l8Yxx-gehtj-78" target="xnmlioU--l8Yxx-gehtj-91">
          <mxGeometry x="0.0526" y="10" relative="1" as="geometry">
            <Array as="points">
              <mxPoint x="645" y="1620" />
            </Array>
            <mxPoint as="offset" />
          </mxGeometry>
        </mxCell>
        <mxCell id="xnmlioU--l8Yxx-gehtj-99" value="5" style="edgeStyle=orthogonalEdgeStyle;rounded=0;orthogonalLoop=1;jettySize=auto;html=1;exitX=1;exitY=0.5;exitDx=0;exitDy=0;entryX=0.5;entryY=0;entryDx=0;entryDy=0;" edge="1" parent="1" source="xnmlioU--l8Yxx-gehtj-78" target="xnmlioU--l8Yxx-gehtj-97">
          <mxGeometry x="-0.1" y="10" relative="1" as="geometry">
            <mxPoint as="offset" />
          </mxGeometry>
        </mxCell>
        <mxCell id="xnmlioU--l8Yxx-gehtj-100" value="Default: 6" style="edgeStyle=orthogonalEdgeStyle;rounded=0;orthogonalLoop=1;jettySize=auto;html=1;exitX=1;exitY=0;exitDx=0;exitDy=0;entryX=0.5;entryY=0;entryDx=0;entryDy=0;" edge="1" parent="1" source="xnmlioU--l8Yxx-gehtj-78" target="xnmlioU--l8Yxx-gehtj-98">
          <mxGeometry x="-0.0286" y="10" relative="1" as="geometry">
            <Array as="points">
              <mxPoint x="595" y="1530" />
              <mxPoint x="885" y="1530" />
            </Array>
            <mxPoint as="offset" />
          </mxGeometry>
        </mxCell>
        <mxCell id="xnmlioU--l8Yxx-gehtj-78" value="Which Button&lt;br&gt;is Pressed / was&lt;br&gt;last pressed?" style="rhombus;whiteSpace=wrap;html=1;rounded=1;" vertex="1" parent="1">
          <mxGeometry x="505" y="1530" width="120" height="120" as="geometry" />
        </mxCell>
        <mxCell id="xnmlioU--l8Yxx-gehtj-107" style="edgeStyle=orthogonalEdgeStyle;rounded=0;orthogonalLoop=1;jettySize=auto;html=1;exitX=0.5;exitY=1;exitDx=0;exitDy=0;entryX=0.5;entryY=0;entryDx=0;entryDy=0;" edge="1" parent="1" source="xnmlioU--l8Yxx-gehtj-80">
          <mxGeometry relative="1" as="geometry">
            <mxPoint x="565" y="1890" as="targetPoint" />
            <Array as="points">
              <mxPoint x="245" y="1840" />
              <mxPoint x="565" y="1840" />
            </Array>
          </mxGeometry>
        </mxCell>
        <mxCell id="xnmlioU--l8Yxx-gehtj-80" value="Display Chosen&lt;br&gt;Joint: 1" style="rounded=1;whiteSpace=wrap;html=1;" vertex="1" parent="1">
          <mxGeometry x="185" y="1560" width="120" height="60" as="geometry" />
        </mxCell>
        <mxCell id="xnmlioU--l8Yxx-gehtj-120" style="edgeStyle=orthogonalEdgeStyle;rounded=0;orthogonalLoop=1;jettySize=auto;html=1;exitX=1;exitY=0.5;exitDx=0;exitDy=0;entryX=0.5;entryY=0;entryDx=0;entryDy=0;" edge="1" parent="1" source="xnmlioU--l8Yxx-gehtj-82" target="xnmlioU--l8Yxx-gehtj-78">
          <mxGeometry relative="1" as="geometry" />
        </mxCell>
        <mxCell id="xnmlioU--l8Yxx-gehtj-82" value="Delay" style="rounded=1;whiteSpace=wrap;html=1;" vertex="1" parent="1">
          <mxGeometry x="280" y="1390" width="120" height="60" as="geometry" />
        </mxCell>
        <mxCell id="xnmlioU--l8Yxx-gehtj-106" style="edgeStyle=orthogonalEdgeStyle;rounded=0;orthogonalLoop=1;jettySize=auto;html=1;exitX=0.5;exitY=1;exitDx=0;exitDy=0;entryX=0.5;entryY=0;entryDx=0;entryDy=0;" edge="1" parent="1" source="xnmlioU--l8Yxx-gehtj-86">
          <mxGeometry relative="1" as="geometry">
            <mxPoint x="565" y="1890" as="targetPoint" />
            <Array as="points">
              <mxPoint x="365" y="1840" />
              <mxPoint x="565" y="1840" />
            </Array>
          </mxGeometry>
        </mxCell>
        <mxCell id="xnmlioU--l8Yxx-gehtj-86" value="Display Chosen&lt;br&gt;Joint: 2" style="rounded=1;whiteSpace=wrap;html=1;" vertex="1" parent="1">
          <mxGeometry x="305" y="1650" width="120" height="60" as="geometry" />
        </mxCell>
        <mxCell id="xnmlioU--l8Yxx-gehtj-103" style="edgeStyle=orthogonalEdgeStyle;rounded=0;orthogonalLoop=1;jettySize=auto;html=1;exitX=0.5;exitY=1;exitDx=0;exitDy=0;" edge="1" parent="1" source="xnmlioU--l8Yxx-gehtj-89">
          <mxGeometry relative="1" as="geometry">
            <mxPoint x="565" y="1890" as="targetPoint" />
          </mxGeometry>
        </mxCell>
        <mxCell id="xnmlioU--l8Yxx-gehtj-89" value="Display Chosen&lt;br&gt;Joint: 3" style="rounded=1;whiteSpace=wrap;html=1;" vertex="1" parent="1">
          <mxGeometry x="425" y="1730" width="120" height="60" as="geometry" />
        </mxCell>
        <mxCell id="xnmlioU--l8Yxx-gehtj-102" style="edgeStyle=orthogonalEdgeStyle;rounded=0;orthogonalLoop=1;jettySize=auto;html=1;exitX=0.5;exitY=1;exitDx=0;exitDy=0;entryX=0.5;entryY=0;entryDx=0;entryDy=0;" edge="1" parent="1" source="xnmlioU--l8Yxx-gehtj-91">
          <mxGeometry relative="1" as="geometry">
            <mxPoint x="565" y="1890" as="targetPoint" />
          </mxGeometry>
        </mxCell>
        <mxCell id="xnmlioU--l8Yxx-gehtj-91" value="Display Chosen&lt;br&gt;Joint: 4" style="rounded=1;whiteSpace=wrap;html=1;" vertex="1" parent="1">
          <mxGeometry x="585" y="1730" width="120" height="60" as="geometry" />
        </mxCell>
        <mxCell id="xnmlioU--l8Yxx-gehtj-104" style="edgeStyle=orthogonalEdgeStyle;rounded=0;orthogonalLoop=1;jettySize=auto;html=1;exitX=0.5;exitY=1;exitDx=0;exitDy=0;entryX=0.5;entryY=0;entryDx=0;entryDy=0;" edge="1" parent="1" source="xnmlioU--l8Yxx-gehtj-97">
          <mxGeometry relative="1" as="geometry">
            <mxPoint x="565" y="1890" as="targetPoint" />
            <Array as="points">
              <mxPoint x="765" y="1840" />
              <mxPoint x="565" y="1840" />
            </Array>
          </mxGeometry>
        </mxCell>
        <mxCell id="xnmlioU--l8Yxx-gehtj-97" value="Display Chosen&lt;br&gt;Joint: 5" style="rounded=1;whiteSpace=wrap;html=1;" vertex="1" parent="1">
          <mxGeometry x="705" y="1650" width="120" height="60" as="geometry" />
        </mxCell>
        <mxCell id="xnmlioU--l8Yxx-gehtj-105" style="edgeStyle=orthogonalEdgeStyle;rounded=0;orthogonalLoop=1;jettySize=auto;html=1;exitX=0.5;exitY=1;exitDx=0;exitDy=0;entryX=0.5;entryY=0;entryDx=0;entryDy=0;" edge="1" parent="1" source="xnmlioU--l8Yxx-gehtj-98">
          <mxGeometry relative="1" as="geometry">
            <mxPoint x="565" y="1890" as="targetPoint" />
            <Array as="points">
              <mxPoint x="885" y="1840" />
              <mxPoint x="565" y="1840" />
            </Array>
          </mxGeometry>
        </mxCell>
        <mxCell id="xnmlioU--l8Yxx-gehtj-98" value="Display Chosen&lt;br&gt;Joint: End Effector" style="rounded=1;whiteSpace=wrap;html=1;" vertex="1" parent="1">
          <mxGeometry x="825" y="1560" width="120" height="60" as="geometry" />
        </mxCell>
        <mxCell id="xnmlioU--l8Yxx-gehtj-113" value="" style="edgeStyle=orthogonalEdgeStyle;rounded=0;orthogonalLoop=1;jettySize=auto;html=1;" edge="1" parent="1" source="xnmlioU--l8Yxx-gehtj-108" target="xnmlioU--l8Yxx-gehtj-112">
          <mxGeometry relative="1" as="geometry" />
        </mxCell>
        <mxCell id="xnmlioU--l8Yxx-gehtj-108" value="Read Joystick&lt;br&gt;Value" style="whiteSpace=wrap;html=1;rounded=1;" vertex="1" parent="1">
          <mxGeometry x="505" y="1890" width="120" height="60" as="geometry" />
        </mxCell>
        <mxCell id="xnmlioU--l8Yxx-gehtj-114" value="" style="edgeStyle=orthogonalEdgeStyle;rounded=0;orthogonalLoop=1;jettySize=auto;html=1;entryX=0.5;entryY=0;entryDx=0;entryDy=0;" edge="1" parent="1" source="xnmlioU--l8Yxx-gehtj-112" target="xnmlioU--l8Yxx-gehtj-64">
          <mxGeometry relative="1" as="geometry">
            <mxPoint x="620" y="2110" as="targetPoint" />
          </mxGeometry>
        </mxCell>
        <mxCell id="xnmlioU--l8Yxx-gehtj-112" value="Moves Joint" style="whiteSpace=wrap;html=1;rounded=1;" vertex="1" parent="1">
          <mxGeometry x="505" y="2010" width="120" height="60" as="geometry" />
        </mxCell>
        <mxCell id="xnmlioU--l8Yxx-gehtj-117" value="No" style="edgeStyle=orthogonalEdgeStyle;rounded=0;orthogonalLoop=1;jettySize=auto;html=1;exitX=1;exitY=0.5;exitDx=0;exitDy=0;entryX=0.5;entryY=0;entryDx=0;entryDy=0;" edge="1" parent="1" source="xnmlioU--l8Yxx-gehtj-115" target="xnmlioU--l8Yxx-gehtj-78">
          <mxGeometry x="-0.4749" y="20" relative="1" as="geometry">
            <Array as="points">
              <mxPoint x="740" y="1300" />
              <mxPoint x="740" y="1420" />
              <mxPoint x="565" y="1420" />
            </Array>
            <mxPoint as="offset" />
          </mxGeometry>
        </mxCell>
        <mxCell id="xnmlioU--l8Yxx-gehtj-118" value="Yes" style="edgeStyle=orthogonalEdgeStyle;rounded=0;orthogonalLoop=1;jettySize=auto;html=1;" edge="1" parent="1" source="xnmlioU--l8Yxx-gehtj-115" target="xnmlioU--l8Yxx-gehtj-77">
          <mxGeometry x="0.0476" y="-10" relative="1" as="geometry">
            <mxPoint as="offset" />
          </mxGeometry>
        </mxCell>
        <mxCell id="xnmlioU--l8Yxx-gehtj-115" value="First time&lt;br&gt;in this mode?" style="rhombus;whiteSpace=wrap;html=1;rounded=1;" vertex="1" parent="1">
          <mxGeometry x="505" y="1240" width="120" height="120" as="geometry" />
        </mxCell>
      </root>
    </mxGraphModel>
  </diagram>
</mxfile>
